# xmcd CD database file generated by Grip 3.3.1
# 
# Track frame offsets:
#       174
#       28252
#       54799
#       75800
#       101487
#       121606
#       141767
#       157376
#       176425
#       202809
# 
# Disc length: 3014 seconds
# 
# Revision: 0
# Processed by: cddbd v1.5.2PL0 Copyright (c) Steve Scherf et al.
# Submitted via: Grip 3.3.1
# 
DISCID=720bc40a
DTITLE=Sona Mohapatra - Sona
DYEAR=2006
DGENRE=Pop
TTITLE0=Bolo Na
TTITLE1=Abhi Nahin Aana
TTITLE2=Aaja Ve
TTITLE3=Ishq Nachaya
TTITLE4=Aise Jaagi Re
TTITLE5=Awaz
TTITLE6=Jai Phulo Re
TTITLE7=Sapne
TTITLE8=Bolo Na House Mix
TTITLE9=Ishq Nachaya Punditz Mix
EXTD=Info from http://www.kaustubh.com
EXTT0=
EXTT1=
EXTT2=
EXTT3=
EXTT4=
EXTT5=
EXTT6=
EXTT7=
EXTT8=
EXTT9=
PLAYORDER=
